<svg xmlns="http://www.w3.org/2000/svg" version="1.1" xmlns:xlink="http://www.w3.org/1999/xlink" xmlns:svgjs="http://svgjs.dev/svgjs" viewBox="0 0 13.5665592494149 3.278485469724222"><g transform="matrix(1,0,0,1,3.1517406113993087,0.5791927348621113)"><g><path d=" M 0.0735 1.2645 Q 0.054 1.2645 0.039 1.2554999999999998 Q 0.024 1.2465 0.024 1.2225 Q 0.024 1.2165 0.027 1.20075 Q 0.03 1.1849999999999998 0.0405 1.134 L 0.0495 1.134 Q 0.075 1.14 0.09 1.1437499999999998 Q 0.105 1.1475 0.1245 1.1475 Q 0.156 1.1475 0.1785 1.1332499999999999 Q 0.201 1.119 0.213 1.0724999999999998 Q 0.225 1.0259999999999998 0.225 0.9284999999999999 L 0.225 0.09899999999999987 L 0.10350000000000001 0.038999999999999924 L 0.10350000000000001 0.014999999999999902 L 0.504 0.014999999999999902 L 0.504 0.038999999999999924 L 0.381 0.09899999999999987 L 0.381 0.6435 Q 0.381 0.813 0.34725 0.9464999999999999 Q 0.3135 1.0799999999999998 0.249 1.1504999999999999 Q 0.20700000000000002 1.1969999999999998 0.18 1.2209999999999999 Q 0.153 1.2449999999999999 0.129 1.2547499999999998 Q 0.105 1.2645 0.0735 1.2645 M 1.2165366210937503 1.0199999999999998 Q 1.1085366210937502 1.0199999999999998 1.0162866210937502 0.9817499999999999 Q 0.9240366210937501 0.9434999999999999 0.8557866210937501 0.8752499999999999 Q 0.7875366210937501 0.8069999999999999 0.7500366210937501 0.714 Q 0.7125366210937502 0.6209999999999999 0.7125366210937502 0.5099999999999999 Q 0.7125366210937502 0.3989999999999999 0.7500366210937501 0.3059999999999998 Q 0.7875366210937501 0.21299999999999986 0.8557866210937501 0.14474999999999982 Q 0.9240366210937501 0.0764999999999999 1.0162866210937502 0.038249999999999895 Q 1.1085366210937502 -2.220446049250313e-16 1.2165366210937503 -2.220446049250313e-16 Q 1.3245366210937501 -2.220446049250313e-16 1.41678662109375 0.038249999999999895 Q 1.5090366210937503 0.0764999999999999 1.5772866210937502 0.14474999999999982 Q 1.64553662109375 0.21299999999999986 1.6837866210937502 0.3059999999999998 Q 1.72203662109375 0.3989999999999999 1.72203662109375 0.5099999999999999 Q 1.72203662109375 0.6209999999999999 1.6837866210937502 0.714 Q 1.64553662109375 0.8069999999999999 1.5772866210937502 0.8752499999999999 Q 1.5090366210937503 0.9434999999999999 1.41678662109375 0.9817499999999999 Q 1.3245366210937501 1.0199999999999998 1.2165366210937503 1.0199999999999998 M 1.24653662109375 0.9449999999999998 Q 1.33803662109375 0.9449999999999998 1.4070366210937502 0.8969999999999999 Q 1.4760366210937501 0.8489999999999999 1.51503662109375 0.7619999999999999 Q 1.5540366210937502 0.6749999999999998 1.5540366210937502 0.5564999999999999 Q 1.5540366210937502 0.4109999999999999 1.5060366210937501 0.3022499999999999 Q 1.45803662109375 0.1934999999999999 1.37553662109375 0.13349999999999984 Q 1.29303662109375 0.0734999999999999 1.1925366210937502 0.0734999999999999 Q 1.1010366210937501 0.0734999999999999 1.03053662109375 0.12074999999999991 Q 0.9600366210937501 0.16799999999999993 0.9202866210937501 0.2549999999999999 Q 0.8805366210937502 0.34199999999999986 0.8805366210937502 0.4604999999999999 Q 0.8805366210937502 0.6059999999999999 0.9292866210937502 0.7154999999999999 Q 0.9780366210937501 0.825 1.0612866210937502 0.8849999999999999 Q 1.1445366210937502 0.9449999999999998 1.24653662109375 0.9449999999999998 M 1.9245043945312503 1.005 L 1.9245043945312503 0.9809999999999999 L 2.0460043945312503 0.9209999999999999 L 2.0460043945312503 0.09899999999999987 L 1.9245043945312503 0.038999999999999924 L 1.9245043945312503 0.014999999999999902 L 2.3280043945312503 0.014999999999999902 Q 2.42850439453125 0.014999999999999902 2.50875439453125 0.03974999999999984 Q 2.5890043945312504 0.06449999999999989 2.6347543945312504 0.11324999999999985 Q 2.6805043945312503 0.16199999999999992 2.6805043945312503 0.23699999999999988 Q 2.6805043945312503 0.3134999999999999 2.62800439453125 0.37724999999999986 Q 2.5755043945312504 0.44099999999999984 2.47650439453125 0.46799999999999986 Q 2.6130043945312504 0.4859999999999999 2.6902543945312503 0.5512499999999999 Q 2.76750439453125 0.6164999999999998 2.76750439453125 0.7169999999999999 Q 2.76750439453125 0.7994999999999999 2.7150043945312503 0.8647499999999999 Q 2.6625043945312505 0.9299999999999999 2.57100439453125 0.9674999999999999 Q 2.4795043945312503 1.005 2.3625043945312503 1.005 L 1.9245043945312503 1.005 M 2.2845043945312504 0.09749999999999992 L 2.20350439453125 0.09749999999999992 L 2.20350439453125 0.4544999999999999 L 2.2920043945312503 0.4544999999999999 Q 2.3985043945312503 0.4544999999999999 2.4570043945312503 0.4079999999999999 Q 2.5155043945312503 0.36149999999999993 2.5155043945312503 0.28049999999999986 Q 2.5155043945312503 0.09749999999999992 2.2845043945312504 0.09749999999999992 M 2.3400043945312503 0.5339999999999998 L 2.20350439453125 0.5339999999999998 L 2.20350439453125 0.9224999999999999 L 2.3505043945312503 0.9224999999999999 Q 2.46600439453125 0.9224999999999999 2.53275439453125 0.8677499999999999 Q 2.5995043945312504 0.813 2.5995043945312504 0.7274999999999998 Q 2.5995043945312504 0.6269999999999999 2.53200439453125 0.5804999999999999 Q 2.46450439453125 0.5339999999999998 2.3400043945312503 0.5339999999999998 M 3.4590563964843755 1.0199999999999998 Q 3.3045563964843754 1.0199999999999998 3.1920563964843756 0.9569999999999999 Q 3.0795563964843753 0.8939999999999999 3.018056396484375 0.7844999999999999 Q 2.9565563964843755 0.6749999999999998 2.9565563964843755 0.5354999999999999 Q 2.9565563964843755 0.4274999999999999 2.9985563964843753 0.3314999999999999 Q 3.0405563964843756 0.23549999999999993 3.1133063964843752 0.16049999999999986 Q 3.1860563964843753 0.08549999999999991 3.2805563964843754 0.042749999999999844 Q 3.3750563964843754 -2.220446049250313e-16 3.4815563964843754 -2.220446049250313e-16 Q 3.5580563964843757 -2.220446049250313e-16 3.6105563964843754 0.009749999999999925 Q 3.663056396484375 0.01949999999999985 3.7043063964843754 0.03524999999999989 Q 3.7455563964843757 0.05099999999999982 3.7875563964843755 0.07199999999999984 L 3.7965563964843754 0.33899999999999986 L 3.7695563964843752 0.33899999999999986 L 3.6660563964843753 0.1439999999999999 Q 3.615056396484375 0.10799999999999987 3.5738063964843754 0.09149999999999991 Q 3.5325563964843756 0.07499999999999984 3.4815563964843754 0.07499999999999984 Q 3.3780563964843755 0.07499999999999984 3.2955563964843755 0.1289999999999999 Q 3.2130563964843755 0.18299999999999983 3.1658063964843755 0.2782499999999999 Q 3.1185563964843754 0.37349999999999983 3.1185563964843754 0.4979999999999999 Q 3.1185563964843754 0.6375 3.1643063964843754 0.73725 Q 3.2100563964843754 0.8369999999999999 3.288056396484375 0.8894999999999998 Q 3.3660563964843755 0.942 3.4605563964843755 0.942 Q 3.5385563964843754 0.942 3.591806396484375 0.9209999999999999 Q 3.6450563964843754 0.8999999999999999 3.687056396484375 0.8714999999999999 L 3.7875563964843755 0.7034999999999999 L 3.8130563964843756 0.7034999999999999 L 3.7950563964843753 0.9449999999999998 Q 3.7290563964843755 0.9779999999999999 3.6540563964843753 0.9989999999999999 Q 3.5790563964843756 1.0199999999999998 3.4590563964843755 1.0199999999999998 M 4.04703369140625 1.005 L 4.04703369140625 0.9809999999999999 L 4.1685336914062505 0.9209999999999999 L 4.1685336914062505 0.09899999999999987 L 4.04703369140625 0.038999999999999924 L 4.04703369140625 0.014999999999999902 L 4.46253369140625 0.014999999999999902 L 4.46253369140625 0.038999999999999924 L 4.32603369140625 0.09899999999999987 L 4.32603369140625 0.9224999999999999 L 4.68153369140625 0.9224999999999999 L 4.788033691406251 0.6644999999999999 L 4.812033691406251 0.6644999999999999 L 4.812033691406251 1.005 L 4.04703369140625 1.005 M 5.008554931640625 1.005 L 5.008554931640625 0.9809999999999999 L 5.1315549316406255 0.9209999999999999 L 5.1315549316406255 0.09899999999999987 L 5.008554931640625 0.038999999999999924 L 5.008554931640625 0.014999999999999902 L 5.409054931640625 0.014999999999999902 L 5.409054931640625 0.038999999999999924 L 5.287554931640625 0.09899999999999987 L 5.287554931640625 0.9209999999999999 L 5.409054931640625 0.9809999999999999 L 5.409054931640625 1.005 L 5.008554931640625 1.005 M 6.1200842285156245 1.0199999999999998 Q 5.965584228515625 1.0199999999999998 5.853084228515625 0.9569999999999999 Q 5.740584228515625 0.8939999999999999 5.679084228515625 0.7844999999999999 Q 5.617584228515625 0.6749999999999998 5.617584228515625 0.5354999999999999 Q 5.617584228515625 0.4274999999999999 5.659584228515625 0.3314999999999999 Q 5.701584228515625 0.23549999999999993 5.774334228515625 0.16049999999999986 Q 5.847084228515625 0.08549999999999991 5.941584228515625 0.042749999999999844 Q 6.036084228515625 -2.220446049250313e-16 6.142584228515625 -2.220446049250313e-16 Q 6.219084228515625 -2.220446049250313e-16 6.271584228515625 0.009749999999999925 Q 6.324084228515625 0.01949999999999985 6.365334228515625 0.03524999999999989 Q 6.406584228515625 0.05099999999999982 6.4485842285156245 0.07199999999999984 L 6.457584228515625 0.33899999999999986 L 6.430584228515625 0.33899999999999986 L 6.327084228515625 0.1439999999999999 Q 6.276084228515625 0.10799999999999987 6.234834228515625 0.09149999999999991 Q 6.193584228515625 0.07499999999999984 6.142584228515625 0.07499999999999984 Q 6.039084228515625 0.07499999999999984 5.9565842285156245 0.1289999999999999 Q 5.874084228515625 0.18299999999999983 5.826834228515625 0.2782499999999999 Q 5.779584228515625 0.37349999999999983 5.779584228515625 0.4979999999999999 Q 5.779584228515625 0.6375 5.825334228515625 0.73725 Q 5.871084228515625 0.8369999999999999 5.949084228515625 0.8894999999999998 Q 6.0270842285156245 0.942 6.121584228515625 0.942 Q 6.199584228515625 0.942 6.252834228515625 0.9209999999999999 Q 6.3060842285156244 0.8999999999999999 6.348084228515625 0.8714999999999999 L 6.4485842285156245 0.7034999999999999 L 6.474084228515625 0.7034999999999999 L 6.456084228515625 0.9449999999999998 Q 6.390084228515625 0.9779999999999999 6.315084228515625 0.9989999999999999 Q 6.240084228515625 1.0199999999999998 6.1200842285156245 1.0199999999999998 M 6.7080615234375 1.005 L 6.7080615234375 0.9809999999999999 L 6.8295615234375004 0.9209999999999999 L 6.8295615234375004 0.09899999999999987 L 6.7080615234375 0.038999999999999924 L 6.7080615234375 0.014999999999999902 L 7.1085615234375 0.014999999999999902 L 7.1085615234375 0.038999999999999924 L 6.9870615234375 0.09899999999999987 L 6.9870615234375 0.9209999999999999 L 7.1085615234375 0.9809999999999999 L 7.1085615234375 1.005 L 6.7080615234375 1.005 M 6.9870615234375 0.49949999999999983 L 7.401061523437501 0.08999999999999986 L 7.2945615234375 0.038999999999999924 L 7.2945615234375 0.014999999999999902 L 7.6185615234375 0.014999999999999902 L 7.6185615234375 0.038999999999999924 L 7.5240615234375 0.0764999999999999 L 7.140061523437501 0.45299999999999985 L 7.6020615234375 0.9404999999999999 L 7.6965615234375 0.9809999999999999 L 7.6965615234375 1.005 L 7.4520615234375 1.005 L 6.9870615234375 0.49949999999999983" fill="#ffffff" fill-rule="nonzero"></path></g><g><path d=" M 0.198 2.1275999999999993 Q 0.1515 2.1275999999999993 0.11925000000000001 2.1189749999999994 Q 0.08700000000000001 2.1103499999999995 0.0525 2.0930999999999993 L 0.045 1.9700999999999995 L 0.057 1.9700999999999995 L 0.09375 2.0495999999999994 Q 0.12075 2.0720999999999994 0.14625 2.0822249999999993 Q 0.17175 2.0923499999999993 0.198 2.0923499999999993 Q 0.24225 2.0923499999999993 0.26737500000000003 2.0690999999999993 Q 0.2925 2.0458499999999993 0.2925 2.0060999999999996 Q 0.2925 1.9730999999999994 0.277875 1.9543499999999994 Q 0.26325 1.9355999999999995 0.235875 1.9209749999999994 Q 0.2085 1.9063499999999993 0.171 1.8875999999999995 Q 0.13575 1.8695999999999995 0.111 1.8523499999999995 Q 0.08625000000000001 1.8350999999999993 0.0735 1.8122249999999993 Q 0.06075 1.7893499999999993 0.06075 1.7548499999999994 Q 0.06075 1.7293499999999995 0.073125 1.7049749999999995 Q 0.0855 1.6805999999999994 0.106875 1.6607249999999993 Q 0.12825 1.6408499999999995 0.154875 1.6292249999999995 Q 0.1815 1.6175999999999995 0.21 1.6175999999999995 Q 0.2445 1.6175999999999995 0.27375 1.6258499999999994 Q 0.303 1.6340999999999994 0.33375 1.6490999999999993 L 0.34125 1.7690999999999995 L 0.32925 1.7690999999999995 L 0.29475 1.6903499999999994 Q 0.2685 1.6708499999999995 0.249 1.6622249999999994 Q 0.2295 1.6535999999999995 0.20400000000000001 1.6535999999999995 Q 0.171 1.6535999999999995 0.149625 1.6760999999999995 Q 0.12825 1.6985999999999994 0.12825 1.7315999999999994 Q 0.12825 1.7698499999999995 0.1515 1.7912249999999994 Q 0.17475000000000002 1.8125999999999993 0.22425 1.8365999999999993 Q 0.27 1.8590999999999993 0.29925 1.8782249999999994 Q 0.3285 1.8973499999999994 0.34275 1.9220999999999995 Q 0.357 1.9468499999999995 0.357 1.9850999999999994 Q 0.357 2.0203499999999996 0.342 2.0469749999999993 Q 0.327 2.0735999999999994 0.303375 2.0915999999999992 Q 0.27975 2.1095999999999995 0.251625 2.1185999999999994 Q 0.2235 2.1275999999999993 0.198 2.1275999999999993 M 0.54975439453125 2.1200999999999994 L 0.54975439453125 2.1080999999999994 L 0.62475439453125 2.0780999999999996 L 0.62475439453125 1.6663499999999996 L 0.50250439453125 1.6663499999999996 L 0.45150439453125 1.7765999999999993 L 0.43950439453125 1.7765999999999993 L 0.43950439453125 1.6250999999999993 L 0.87750439453125 1.6250999999999993 L 0.87750439453125 1.7765999999999993 L 0.8655043945312499 1.7765999999999993 L 0.81450439453125 1.6663499999999996 L 0.69225439453125 1.6663499999999996 L 0.69225439453125 2.0780999999999996 L 0.76725439453125 2.1080999999999994 L 0.76725439453125 2.1200999999999994 L 0.54975439453125 2.1200999999999994 M 0.9209908447265626 2.1200999999999994 L 0.9209908447265626 2.1080999999999994 L 0.9689908447265625 2.0833499999999994 L 1.1609908447265624 1.6213499999999994 L 1.1947408447265624 1.6213499999999994 L 1.3837408447265624 2.0810999999999993 L 1.4339908447265626 2.1080999999999994 L 1.4339908447265626 2.1200999999999994 L 1.2479908447265626 2.1200999999999994 L 1.2479908447265626 2.1080999999999994 L 1.3139908447265625 2.0825999999999993 L 1.2577408447265626 1.9438499999999994 L 1.0754908447265625 1.9438499999999994 L 1.0199908447265624 2.0825999999999993 L 1.0829908447265626 2.1080999999999994 L 1.0829908447265626 2.1200999999999994 L 0.9209908447265626 2.1200999999999994 M 1.0927408447265625 1.9025999999999994 L 1.2412408447265626 1.9025999999999994 L 1.1669908447265624 1.7180999999999993 L 1.0927408447265625 1.9025999999999994 M 1.5149908447265625 2.1200999999999994 L 1.5149908447265625 2.1080999999999994 L 1.5749908447265624 2.0780999999999996 L 1.5749908447265624 1.6670999999999994 L 1.5149908447265625 1.6370999999999993 L 1.5149908447265625 1.6250999999999993 L 1.7084908447265625 1.6250999999999993 Q 1.7872408447265624 1.6250999999999993 1.8326158447265626 1.6577249999999994 Q 1.8779908447265625 1.6903499999999994 1.8779908447265625 1.7473499999999995 Q 1.8779908447265625 1.7893499999999993 1.8494908447265626 1.8227249999999995 Q 1.8209908447265626 1.8560999999999994 1.7737408447265626 1.8733499999999994 L 1.9162408447265624 2.0810999999999993 L 1.9657408447265625 2.1080999999999994 L 1.9657408447265625 2.1200999999999994 L 1.8577408447265624 2.1200999999999994 L 1.7122408447265625 1.8928499999999995 L 1.6424908447265625 1.8928499999999995 L 1.6424908447265625 2.0773499999999996 L 1.6987408447265624 2.1080999999999994 L 1.6987408447265624 2.1200999999999994 L 1.5149908447265625 2.1200999999999994 M 1.6912408447265626 1.6663499999999996 L 1.6424908447265625 1.6663499999999996 L 1.6424908447265625 1.8515999999999995 L 1.6957408447265625 1.8515999999999995 Q 1.7429908447265625 1.8515999999999995 1.7741158447265626 1.8249749999999993 Q 1.8052408447265624 1.7983499999999994 1.8052408447265624 1.7570999999999994 Q 1.8052408447265624 1.7150999999999994 1.7744908447265626 1.6907249999999994 Q 1.7437408447265625 1.6663499999999996 1.6912408447265626 1.6663499999999996 M 2.1059915771484374 2.1200999999999994 L 2.1059915771484374 2.1080999999999994 L 2.1809915771484376 2.0780999999999996 L 2.1809915771484376 1.6663499999999996 L 2.0587415771484374 1.6663499999999996 L 2.0077415771484377 1.7765999999999993 L 1.9957415771484375 1.7765999999999993 L 1.9957415771484375 1.6250999999999993 L 2.4337415771484374 1.6250999999999993 L 2.4337415771484374 1.7765999999999993 L 2.4217415771484374 1.7765999999999993 L 2.3707415771484377 1.6663499999999996 L 2.2484915771484375 1.6663499999999996 L 2.2484915771484375 2.0780999999999996 L 2.3234915771484377 2.1080999999999994 L 2.3234915771484377 2.1200999999999994 L 2.1059915771484374 2.1200999999999994 M 2.8754999999999997 2.1238499999999996 L 2.7375 1.6640999999999995 L 2.68125 1.6370999999999993 L 2.68125 1.6250999999999993 L 2.87175 1.6250999999999993 L 2.87175 1.6370999999999993 L 2.808 1.6648499999999995 L 2.90175 1.9895999999999994 L 2.9055 1.9895999999999994 L 3.03525 1.6213499999999994 L 3.0629999999999997 1.6213499999999994 L 3.19575 1.9895999999999994 L 3.20025 1.9895999999999994 L 3.2925 1.6655999999999995 L 3.22875 1.6370999999999993 L 3.22875 1.6250999999999993 L 3.3945 1.6250999999999993 L 3.3945 1.6370999999999993 L 3.3442499999999997 1.6648499999999995 L 3.2047499999999998 2.1238499999999996 L 3.1785 2.1238499999999996 L 3.042 1.7563499999999994 L 3.03825 1.7563499999999994 L 2.90175 2.1238499999999996 L 2.8754999999999997 2.1238499999999996 M 3.465763549804688 2.1200999999999994 L 3.465763549804688 2.1080999999999994 L 3.5257635498046875 2.0780999999999996 L 3.5257635498046875 1.6670999999999994 L 3.465763549804688 1.6370999999999993 L 3.465763549804688 1.6250999999999993 L 3.653263549804688 1.6250999999999993 L 3.653263549804688 1.6370999999999993 L 3.593263549804688 1.6670999999999994 L 3.593263549804688 2.0780999999999996 L 3.653263549804688 2.1080999999999994 L 3.653263549804688 2.1200999999999994 L 3.465763549804688 2.1200999999999994 M 3.857274536132813 2.1200999999999994 L 3.857274536132813 2.1080999999999994 L 3.932274536132813 2.0780999999999996 L 3.932274536132813 1.6663499999999996 L 3.810024536132813 1.6663499999999996 L 3.759024536132813 1.7765999999999993 L 3.747024536132813 1.7765999999999993 L 3.747024536132813 1.6250999999999993 L 4.185024536132813 1.6250999999999993 L 4.185024536132813 1.7765999999999993 L 4.173024536132813 1.7765999999999993 L 4.122024536132813 1.6663499999999996 L 3.999774536132813 1.6663499999999996 L 3.999774536132813 2.0780999999999996 L 4.074774536132813 2.1080999999999994 L 4.074774536132813 2.1200999999999994 L 3.857274536132813 2.1200999999999994 M 4.275032958984376 2.1200999999999994 L 4.275032958984376 2.1080999999999994 L 4.3350329589843755 2.0780999999999996 L 4.3350329589843755 1.6670999999999994 L 4.275032958984376 1.6370999999999993 L 4.275032958984376 1.6250999999999993 L 4.462532958984376 1.6250999999999993 L 4.462532958984376 1.6370999999999993 L 4.402532958984375 1.6670999999999994 L 4.402532958984375 1.8440999999999994 L 4.657532958984376 1.8440999999999994 L 4.657532958984376 1.6670999999999994 L 4.597532958984376 1.6370999999999993 L 4.597532958984376 1.6250999999999993 L 4.785032958984376 1.6250999999999993 L 4.785032958984376 1.6370999999999993 L 4.725032958984376 1.6670999999999994 L 4.725032958984376 2.0780999999999996 L 4.785032958984376 2.1080999999999994 L 4.785032958984376 2.1200999999999994 L 4.597532958984376 2.1200999999999994 L 4.597532958984376 2.1080999999999994 L 4.657532958984376 2.0780999999999996 L 4.657532958984376 1.8853499999999994 L 4.402532958984375 1.8853499999999994 L 4.402532958984375 2.0780999999999996 L 4.462532958984376 2.1080999999999994 L 4.462532958984376 2.1200999999999994 L 4.275032958984376 2.1200999999999994 M 5.207281127929689 2.1200999999999994 L 5.207281127929689 2.1080999999999994 L 5.274781127929689 2.0780999999999996 L 5.274781127929689 1.8890999999999993 L 5.108281127929689 1.6618499999999994 L 5.062531127929689 1.6370999999999993 L 5.062531127929689 1.6250999999999993 L 5.244031127929689 1.6250999999999993 L 5.244031127929689 1.6370999999999993 L 5.189281127929688 1.6633499999999994 L 5.189281127929688 1.6663499999999996 L 5.323531127929689 1.8485999999999994 L 5.444281127929689 1.6670999999999994 L 5.444281127929689 1.6640999999999995 L 5.389531127929689 1.6370999999999993 L 5.389531127929689 1.6250999999999993 L 5.548531127929689 1.6250999999999993 L 5.548531127929689 1.6370999999999993 L 5.500531127929689 1.6618499999999994 L 5.342281127929689 1.8883499999999995 L 5.342281127929689 2.0780999999999996 L 5.409781127929689 2.1080999999999994 L 5.409781127929689 2.1200999999999994 L 5.207281127929689 2.1200999999999994 M 5.8545607910156265 2.1275999999999993 Q 5.800560791015626 2.1275999999999993 5.755185791015626 2.1084749999999994 Q 5.709810791015626 2.0893499999999996 5.676060791015627 2.0552249999999996 Q 5.6423107910156265 2.0210999999999992 5.623560791015627 1.9745999999999995 Q 5.604810791015627 1.9280999999999995 5.604810791015627 1.8725999999999994 Q 5.604810791015627 1.8170999999999995 5.623560791015627 1.7705999999999995 Q 5.6423107910156265 1.7240999999999995 5.676060791015627 1.6899749999999993 Q 5.709810791015626 1.6558499999999994 5.755185791015626 1.6367249999999993 Q 5.800560791015626 1.6175999999999995 5.8545607910156265 1.6175999999999995 Q 5.908560791015627 1.6175999999999995 5.954310791015627 1.6367249999999993 Q 6.000060791015627 1.6558499999999994 6.033810791015626 1.6899749999999993 Q 6.067560791015627 1.7240999999999995 6.086310791015626 1.7705999999999995 Q 6.105060791015626 1.8170999999999995 6.105060791015626 1.8725999999999994 Q 6.105060791015626 1.9280999999999995 6.086310791015626 1.9745999999999995 Q 6.067560791015627 2.0210999999999992 6.033810791015626 2.0552249999999996 Q 6.000060791015627 2.0893499999999996 5.954310791015627 2.1084749999999994 Q 5.908560791015627 2.1275999999999993 5.8545607910156265 2.1275999999999993 M 5.870310791015626 2.0900999999999996 Q 5.918310791015626 2.0900999999999996 5.954685791015627 2.0660999999999996 Q 5.991060791015626 2.0420999999999996 6.011685791015626 1.9985999999999995 Q 6.032310791015627 1.9550999999999994 6.032310791015627 1.8958499999999994 Q 6.032310791015627 1.8230999999999995 6.006810791015627 1.7687249999999994 Q 5.981310791015627 1.7143499999999994 5.938185791015627 1.6843499999999993 Q 5.895060791015626 1.6543499999999995 5.841810791015627 1.6543499999999995 Q 5.793810791015627 1.6543499999999995 5.756685791015626 1.6779749999999996 Q 5.719560791015627 1.7015999999999996 5.698560791015627 1.7450999999999994 Q 5.677560791015627 1.7885999999999993 5.677560791015627 1.8478499999999993 Q 5.677560791015627 1.9205999999999994 5.703435791015627 1.9753499999999995 Q 5.729310791015626 2.0300999999999996 5.772810791015627 2.0600999999999994 Q 5.816310791015627 2.0900999999999996 5.870310791015626 2.0900999999999996 M 6.461308593750002 2.1275999999999993 Q 6.4050585937500015 2.1275999999999993 6.361183593750002 2.1065999999999994 Q 6.317308593750002 2.0855999999999995 6.291808593750002 2.0417249999999996 Q 6.266308593750002 1.9978499999999995 6.266308593750002 1.9280999999999995 L 6.266308593750002 1.6670999999999994 L 6.206308593750002 1.6370999999999993 L 6.206308593750002 1.6250999999999993 L 6.393808593750002 1.6250999999999993 L 6.393808593750002 1.6370999999999993 L 6.3338085937500015 1.6670999999999994 L 6.3338085937500015 1.9168499999999995 Q 6.3338085937500015 1.9790999999999994 6.353308593750002 2.0158499999999995 Q 6.372808593750002 2.0525999999999995 6.406183593750002 2.0683499999999992 Q 6.439558593750002 2.0840999999999994 6.480808593750002 2.0840999999999994 Q 6.513808593750002 2.0840999999999994 6.541933593750002 2.0698499999999993 Q 6.570058593750002 2.055599999999999 6.586933593750002 2.0248499999999994 Q 6.603808593750002 1.9940999999999995 6.603808593750002 1.9430999999999994 L 6.603808593750002 1.6655999999999995 L 6.528808593750002 1.6370999999999993 L 6.528808593750002 1.6250999999999993 L 6.715558593750002 1.6250999999999993 L 6.715558593750002 1.6370999999999993 L 6.656308593750002 1.6663499999999996 L 6.656308593750002 1.9280999999999995 Q 6.656308593750002 1.9978499999999995 6.630808593750002 2.0417249999999996 Q 6.605308593750002 2.0855999999999995 6.561433593750002 2.1065999999999994 Q 6.517558593750002 2.1275999999999993 6.461308593750002 2.1275999999999993 M 6.820574340820315 2.1200999999999994 L 6.820574340820315 2.1080999999999994 L 6.880574340820314 2.0780999999999996 L 6.880574340820314 1.6670999999999994 L 6.820574340820315 1.6370999999999993 L 6.820574340820315 1.6250999999999993 L 7.014074340820315 1.6250999999999993 Q 7.092824340820314 1.6250999999999993 7.138199340820314 1.6577249999999994 Q 7.183574340820314 1.6903499999999994 7.183574340820314 1.7473499999999995 Q 7.183574340820314 1.7893499999999993 7.155074340820315 1.8227249999999995 Q 7.126574340820315 1.8560999999999994 7.079324340820315 1.8733499999999994 L 7.221824340820315 2.0810999999999993 L 7.271324340820315 2.1080999999999994 L 7.271324340820315 2.1200999999999994 L 7.163324340820314 2.1200999999999994 L 7.017824340820315 1.8928499999999995 L 6.948074340820314 1.8928499999999995 L 6.948074340820314 2.0773499999999996 L 7.004324340820315 2.1080999999999994 L 7.004324340820315 2.1200999999999994 L 6.820574340820315 2.1200999999999994 M 6.996824340820314 1.6663499999999996 L 6.948074340820314 1.6663499999999996 L 6.948074340820314 1.8515999999999995 L 7.0013243408203145 1.8515999999999995 Q 7.0485743408203145 1.8515999999999995 7.079699340820315 1.8249749999999993 Q 7.110824340820315 1.7983499999999994 7.110824340820315 1.7570999999999994 Q 7.110824340820315 1.7150999999999994 7.080074340820315 1.6907249999999994 Q 7.049324340820315 1.6663499999999996 6.996824340820314 1.6663499999999996 M 7.77008239746094 2.1275999999999993 Q 7.69358239746094 2.1275999999999993 7.63808239746094 2.0960999999999994 Q 7.58258239746094 2.0645999999999995 7.55258239746094 2.0102249999999993 Q 7.5225823974609405 1.9558499999999994 7.5225823974609405 1.8860999999999994 Q 7.5225823974609405 1.8328499999999994 7.54320739746094 1.7844749999999994 Q 7.56383239746094 1.7360999999999995 7.59945739746094 1.6985999999999994 Q 7.63508239746094 1.6610999999999994 7.68195739746094 1.6393499999999994 Q 7.72883239746094 1.6175999999999995 7.7813323974609405 1.6175999999999995 Q 7.81883239746094 1.6175999999999995 7.84508239746094 1.6224749999999994 Q 7.87133239746094 1.6273499999999994 7.89195739746094 1.6352249999999995 Q 7.91258239746094 1.6430999999999993 7.93358239746094 1.6535999999999995 L 7.93733239746094 1.7848499999999994 L 7.923832397460941 1.7848499999999994 L 7.878082397460941 1.6933499999999995 Q 7.84958239746094 1.6730999999999994 7.8282073974609405 1.6640999999999995 Q 7.806832397460941 1.6550999999999993 7.7798323974609405 1.6550999999999993 Q 7.72583239746094 1.6550999999999993 7.68345739746094 1.6820999999999995 Q 7.6410823974609405 1.7090999999999994 7.6167073974609405 1.7559749999999994 Q 7.5923323974609405 1.8028499999999994 7.5923323974609405 1.8635999999999995 Q 7.5923323974609405 1.9348499999999995 7.6159573974609405 1.9854749999999994 Q 7.6395823974609405 2.0360999999999994 7.67970739746094 2.0627249999999995 Q 7.71983239746094 2.0893499999999996 7.76858239746094 2.0893499999999996 Q 7.809832397460941 2.0893499999999996 7.83795739746094 2.0777249999999996 Q 7.86608239746094 2.0660999999999996 7.88783239746094 2.0518499999999995 L 7.93283239746094 1.9715999999999994 L 7.9455823974609405 1.9715999999999994 L 7.93733239746094 2.090849999999999 Q 7.91558239746094 2.1020999999999996 7.89270739746094 2.1103499999999995 Q 7.86983239746094 2.1185999999999994 7.84058239746094 2.1230999999999995 Q 7.81133239746094 2.1275999999999993 7.77008239746094 2.1275999999999993 M 8.070842285156253 2.1200999999999994 L 8.070842285156253 2.1080999999999994 L 8.130842285156254 2.0780999999999996 L 8.130842285156254 1.6670999999999994 L 8.070842285156253 1.6370999999999993 L 8.070842285156253 1.6250999999999993 L 8.265842285156253 1.6250999999999993 L 8.265842285156253 1.6370999999999993 L 8.198342285156253 1.6670999999999994 L 8.198342285156253 2.0788499999999996 L 8.380592285156252 2.0788499999999996 L 8.431592285156253 1.9535999999999993 L 8.443592285156253 1.9535999999999993 L 8.443592285156253 2.1200999999999994 L 8.070842285156253 2.1200999999999994 M 8.548599243164066 2.1200999999999994 L 8.548599243164066 2.1080999999999994 L 8.608599243164067 2.0780999999999996 L 8.608599243164067 1.6670999999999994 L 8.548599243164066 1.6370999999999993 L 8.548599243164066 1.6250999999999993 L 8.736099243164066 1.6250999999999993 L 8.736099243164066 1.6370999999999993 L 8.676099243164066 1.6670999999999994 L 8.676099243164066 2.0780999999999996 L 8.736099243164066 2.1080999999999994 L 8.736099243164066 2.1200999999999994 L 8.548599243164066 2.1200999999999994 M 9.096110229492192 2.1275999999999993 Q 9.01961022949219 2.1275999999999993 8.96411022949219 2.0960999999999994 Q 8.908610229492192 2.0645999999999995 8.87861022949219 2.0102249999999993 Q 8.848610229492191 1.9558499999999994 8.848610229492191 1.8860999999999994 Q 8.848610229492191 1.8328499999999994 8.86923522949219 1.7844749999999994 Q 8.889860229492191 1.7360999999999995 8.92548522949219 1.6985999999999994 Q 8.96111022949219 1.6610999999999994 9.00798522949219 1.6393499999999994 Q 9.05486022949219 1.6175999999999995 9.10736022949219 1.6175999999999995 Q 9.144860229492192 1.6175999999999995 9.171110229492191 1.6224749999999994 Q 9.19736022949219 1.6273499999999994 9.217985229492191 1.6352249999999995 Q 9.238610229492192 1.6430999999999993 9.259610229492191 1.6535999999999995 L 9.263360229492191 1.7848499999999994 L 9.24986022949219 1.7848499999999994 L 9.20411022949219 1.6933499999999995 Q 9.175610229492191 1.6730999999999994 9.15423522949219 1.6640999999999995 Q 9.132860229492191 1.6550999999999993 9.10586022949219 1.6550999999999993 Q 9.051860229492192 1.6550999999999993 9.00948522949219 1.6820999999999995 Q 8.96711022949219 1.7090999999999994 8.942735229492191 1.7559749999999994 Q 8.91836022949219 1.8028499999999994 8.91836022949219 1.8635999999999995 Q 8.91836022949219 1.9348499999999995 8.941985229492191 1.9854749999999994 Q 8.96561022949219 2.0360999999999994 9.005735229492192 2.0627249999999995 Q 9.045860229492192 2.0893499999999996 9.094610229492192 2.0893499999999996 Q 9.135860229492192 2.0893499999999996 9.16398522949219 2.0777249999999996 Q 9.192110229492192 2.0660999999999996 9.213860229492191 2.0518499999999995 L 9.258860229492191 1.9715999999999994 L 9.271610229492191 1.9715999999999994 L 9.263360229492191 2.090849999999999 Q 9.241610229492192 2.1020999999999996 9.218735229492191 2.1103499999999995 Q 9.19586022949219 2.1185999999999994 9.166610229492191 2.1230999999999995 Q 9.137360229492192 2.1275999999999993 9.096110229492192 2.1275999999999993 M 9.396870117187504 2.1200999999999994 L 9.396870117187504 2.1080999999999994 L 9.456870117187504 2.0780999999999996 L 9.456870117187504 1.6670999999999994 L 9.396870117187504 1.6370999999999993 L 9.396870117187504 1.6250999999999993 L 9.584370117187504 1.6250999999999993 L 9.584370117187504 1.6370999999999993 L 9.524370117187503 1.6670999999999994 L 9.524370117187503 2.0780999999999996 L 9.584370117187504 2.1080999999999994 L 9.584370117187504 2.1200999999999994 L 9.396870117187504 2.1200999999999994 M 9.525120117187504 1.8665999999999994 L 9.732870117187504 1.6625999999999994 L 9.679620117187504 1.6370999999999993 L 9.679620117187504 1.6250999999999993 L 9.837120117187505 1.6250999999999993 L 9.837120117187505 1.6370999999999993 L 9.790620117187505 1.6550999999999993 L 9.593370117187504 1.8485999999999994 L 9.830370117187504 2.0885999999999996 L 9.876120117187504 2.1080999999999994 L 9.876120117187504 2.1200999999999994 L 9.768120117187504 2.1200999999999994 L 9.525120117187504 1.8665999999999994" fill="#e9e9e5" fill-rule="nonzero"></path></g><g clip-path="url(&quot;#SvgjsClipPath1001&quot;)"><g clip-path="url(&quot;#SvgjsClipPath100054db7c92-a34f-4916-8708-a7055d512f1f&quot;)"><path d=" M -1.5216825786347357 -0.04352368599006254 C -1.504203862461444 -0.04956465564843161 -1.4857655837011836 -0.05234941533349053 -1.4672824230839359 -0.0517398195027692 C -1.2356616927742388 -0.0428382194753265 -1.0126860952121788 0.03858303849643385 -0.8298306985980861 0.181030590673888 C -0.8949251872820911 0.1381797805242838 -0.9685096805958928 0.11018480853098825 -1.0429157872609665 0.08834859678055088 C -1.1628178982797341 0.05306598115931796 -1.287248902405506 0.037675760335516256 -1.4101034776621733 0.01643404930266494 C -1.44232448561432 0.011440833021620078 -1.474027077842171 0.003539777948754985 -1.5048228054753272 -0.007172305033843432 C -1.51551045882519 -0.011647759874098232 -1.5276209060272523 -0.016390406048099625 -1.5336661099532685 -0.0269711828644633 C -1.5366786922412605 -0.03504036114360934 -1.528135249344715 -0.04096532896943925 -1.5216825786347357 -0.04352368599006254 Z" fill="#ffffff" transform="matrix(1,0,0,1,0,0)" fill-rule="nonzero"></path></g><g clip-path="url(&quot;#SvgjsClipPath100054db7c92-a34f-4916-8708-a7055d512f1f&quot;)"><path d=" M -2.0121991089100093 0.06597800236262036 C -1.9499481268032506 0.03465891053156295 -1.8848587748211063 0.009333088996432863 -1.817810733826045 -0.009657184437686123 C -1.8542689913157626 0.004149927733666972 -1.8926243072750815 0.022980236979455587 -1.912302949005515 0.05847660566768574 C -1.924236434121322 0.08003910315828194 -1.9204192217005907 0.10690137227903065 -1.9029512523243861 0.12428583116946285 C -1.8735602056122644 0.15391067029861236 -1.8310634239798746 0.163856867697328 -1.791579224635476 0.17167221420941478 C -1.6880425828086856 0.18881253826925642 -1.5826022027289506 0.1827072162931476 -1.4782305879842017 0.18260701954299263 C -1.292632807780499 0.17962115638837484 -1.1034947424046546 0.1832015202605787 -0.9237016939265972 0.2349898805240052 C -0.8681567898156131 0.2507738494550335 -0.8143041845437438 0.2719980720487832 -0.7629259886279489 0.2983543053220014 C -0.6998955529971378 0.3315327891899801 -0.6402985260049672 0.3736087444717192 -0.59563749456923 0.4297055649918089 C -0.5804351320633621 0.450711405252308 -0.5663264950481746 0.47248748896396264 -0.5533678255705237 0.4949470089093758 C -0.5080766522612925 0.5716984865203533 -0.4723055891156358 0.6536823447325922 -0.44684532058911763 0.7390864103369472 C -0.4674240539029957 0.6870430424559807 -0.4987507994589149 0.6399265974216471 -0.5387791787479621 0.6008148951231047 C -0.6171530767191711 0.5224677162852699 -0.7189128961765479 0.47138741305627174 -0.8244401134397512 0.44040657790835847 C -0.9313166469383736 0.4091117929432929 -1.0432430966448072 0.39823710565980797 -1.154241056466471 0.39849761721021093 C -1.3000206481585925 0.3990653987944224 -1.444624597982229 0.41992636217668483 -1.5885338503381252 0.4416890963103419 C -1.6966261044052948 0.45764709871835507 -1.8049588306728361 0.4748876195283517 -1.9143803616253952 0.47713870651516643 C -1.9738304333840042 0.47770648809937777 -2.034042000443791 0.4737988148433344 -2.0910806704153373 0.4560639900659067 C -2.129155435474222 0.4439869417805623 -2.166094637364683 0.42501635708455676 -2.1930742822897416 0.39496401182141266 C -2.2220262067535472 0.3631065691659175 -2.2347864483970934 0.3197404547222458 -2.2277022791432954 0.27727958887274146 C -2.2183105037621047 0.22099573441902914 -2.1807166831039635 0.17356259289567158 -2.1362961238685987 0.13967605199326444 C -2.096702234706899 0.11224221432660406 -2.05523505142242 0.08761591261610488 -2.012199108910008 0.06597800236261951 Z" fill="#ffffff" transform="matrix(1,0,0,1,0,0)" fill-rule="nonzero"></path></g><g clip-path="url(&quot;#SvgjsClipPath100054db7c92-a34f-4916-8708-a7055d512f1f&quot;)"><path d=" M -2.5382387270068874 0.6310208754031525 C -2.501207537015319 0.5419816407526562 -2.452542717578717 0.45824113497238383 -2.3935145410830634 0.3819851927846726 C -2.4111743876943827 0.4079836277976134 -2.4249441183186096 0.4364209681961019 -2.434388135362944 0.4663976148985548 C -2.4549478138588015 0.5308144622577425 -2.449609670412539 0.600706285628883 -2.419505578073261 0.6612535748165755 C -2.390201368544608 0.7200356682408182 -2.3375780353632227 0.7646699805431806 -2.2784419134217657 0.7918967774519547 C -2.2021053493703744 0.8272996291733737 -2.116336931237729 0.8373660626722751 -2.0329197968420543 0.8360835442702917 C -1.9280471983465306 0.8337856988000714 -1.8242700843193678 0.815008827821032 -1.7219625226278104 0.7926649525364761 C -1.622433750807218 0.7707151844691964 -1.523773350821302 0.745044777079496 -1.4243447757508647 0.7230215313954359 C -1.3014367622274485 0.6956344196864138 -1.1767051678512117 0.6733640220186383 -1.050584178539492 0.6695298263793752 C -0.9233075867093194 0.6659494625071714 -0.7929182158409989 0.6811125706972885 -0.6753740683425451 0.7325001439600951 C -0.6018964515622423 0.7648436549101159 -0.5336090264399651 0.8115219809156394 -0.4825955210444044 0.8740581125790212 C -0.4349419466707056 0.9315910865179987 -0.402905705754494 1.0036058307460396 -0.3999933202166561 1.0788602698957575 C -0.4014411837701246 1.1935302457501147 -0.42112775104756883 1.3072392811185047 -0.4583145085901914 1.415721743916744 C -0.43760889244413237 1.3394761458825608 -0.4494407361913253 1.2580584524929843 -0.49099200870739246 1.1908601972189707 C -0.5182321669507726 1.146654901426588 -0.5547960827825471 1.1089306244028205 -0.5981290537564159 1.0803231424480197 C -0.6557637341247189 1.0427729009906905 -0.7203472851526496 1.017169349230875 -0.7880553335668121 1.00502862459824 C -0.8482392314572986 0.9939667778763983 -0.9094623585318544 0.9895983378385123 -0.9706071325658059 0.9920030470780954 C -1.0975697745788249 0.9962179903679473 -1.2224349646219346 1.0230239609260707 -1.3450958261616357 1.0538979195404854 C -1.47726201939937 1.0875239488924895 -1.6079052220347492 1.1271951821705097 -1.7410600232073459 1.1564526332157576 C -1.8455251549189065 1.179163896584215 -1.9519007046667542 1.195602843392972 -2.05901771036575 1.1946543141581718 C -2.166762615699049 1.193418554239594 -2.276825405852599 1.172824782191078 -2.371371059298818 1.1192128410748312 C -2.4499854294704 1.0749793157730885 -2.516095245222642 1.0060439516664768 -2.549794752191426 0.9217183667360634 C -2.5792269106670407 0.8494399913235228 -2.583476240566885 0.7693591811678226 -2.5618584409100835 0.6943719406344612 C -2.5553322925833233 0.6728162797844578 -2.546782169903433 0.6518818387854151 -2.5382387270068874 0.6310208754031525 Z" fill="#ffffff" transform="matrix(1,0,0,1,0,0)" fill-rule="nonzero"></path></g><g clip-path="url(&quot;#SvgjsClipPath100054db7c92-a34f-4916-8708-a7055d512f1f&quot;)"><path d=" M -2.624174139723124 1.035535195128753 L -2.623653116622319 1.0355819536121587 C -2.622611070420707 1.1370011041190082 -2.577776364618034 1.2345393005031888 -2.5103840304638094 1.3090122050016983 C -2.430787732140709 1.3974792556051832 -2.3215265159883987 1.4552326623945018 -2.207215383628278 1.4849309791404317 C -2.0709478034175337 1.520881573096031 -1.9278868835462828 1.5193118240102699 -1.7889741091314488 1.5018375107832451 C -1.6603548808491997 1.4855722383414234 -1.5341270150039812 1.4553528984946877 -1.408299936159384 1.42502000233111 C -1.3080564275210198 1.401006181210638 -1.2077528008325624 1.376731848539763 -1.1057658687415008 1.3613215883659306 C -1.0426754626017132 1.3513510773266917 -0.9788130024009605 1.3471032679662354 -0.9149578575297408 1.3486300000129694 C -0.8472448937750197 1.3510881602834375 -0.7783763275018447 1.3621498815005448 -0.7169490398735101 1.3920085130467228 C -0.660772061953296 1.4186474890212544 -0.6112347886766849 1.4640633359748256 -0.5895455321598071 1.5233530929331867 C -0.5650173677218726 1.5870849058150842 -0.5780963835087674 1.6607228373956353 -0.6150756640992898 1.7169666131492858 C -0.645292470457983 1.758935723327757 -0.6785848012206865 1.7986025161874029 -0.7146779135366621 1.8356396440328187 C -0.7587031220750533 1.8809712338711657 -0.8066477894153681 1.92232404033281 -0.8579525864749122 1.9592156358906023 C -0.8274794148611173 1.933284716950499 -0.8007870006198359 1.898997389047472 -0.7952694995779692 1.858250710651122 C -0.7910812671251926 1.8298524232439668 -0.7987794143356179 1.8009831630838362 -0.8165512893108822 1.7784406592610256 C -0.8364466087144433 1.7543988466921785 -0.8624583545098852 1.7361684712677643 -0.8918458071606621 1.7256703708460803 C -0.9477555937471271 1.7040278728126093 -1.0086084200079077 1.7000467219397855 -1.067964974799705 1.6994522212221994 C -1.196704439182139 1.7012824818583632 -1.3238006768620332 1.7244346109275026 -1.450970392158707 1.7426236609722996 C -1.5740120013489969 1.7608060312337526 -1.6979219823739635 1.7762764094576786 -1.8224131045498277 1.77684419104189 C -1.968032381441701 1.7779730744269688 -2.1162166951375427 1.7578736063458844 -2.251001363445993 1.7004942674238108 C -2.3261476489462236 1.6692516597195974 -2.39503142392982 1.624689921973968 -2.454333968427124 1.5689559738203809 C -2.505820451363475 1.5208378312846846 -2.545910781838842 1.4618285710181878 -2.5716777224252683 1.3962368159032625 C -2.6089210797761835 1.2797143734257042 -2.6266586976253206 1.1578396277538 -2.624174139723124 1.0355351951287535 Z" fill="#ffffff" transform="matrix(1,0,0,1,0,0)" fill-rule="nonzero"></path></g><g clip-path="url(&quot;#SvgjsClipPath100054db7c92-a34f-4916-8708-a7055d512f1f&quot;)"><path d=" M -2.4108418990765292 1.7145017730954737 C -2.3483324865465223 1.7902839151293413 -2.2641404972829817 1.845619240348253 -2.1747716759281017 1.8851635577427432 C -2.0887315864269986 1.9221658266019226 -1.9982602317866487 1.947865313503532 -1.9056164858785074 1.9616203578943217 C -1.7248949475156794 1.9907241739226649 -1.541334501231795 1.9807846563072928 -1.3592102083667976 1.9807378978238872 C -1.2993793889575997 1.9822074501594935 -1.2388471922973172 1.9831960580943555 -1.1804124476069455 1.9974974742331404 C -1.1572736781044934 2.0038967066763704 -1.132845710416714 2.0116853340550827 -1.1156987065735287 2.0294936364492906 C -1.104380720295343 2.04023414289924 -1.101215309088759 2.05701674398177 -1.1078432813613803 2.0711420855970353 C -1.1197666946298206 2.0948085579836366 -1.144762443901811 2.10746674741988 -1.1680882473378855 2.1172927087184097 C -1.2799356721755815 2.1541705588844913 -1.397041314900893 2.1725916965728542 -1.5148090815741047 2.1718331397194257 C -1.506539996179014 2.17176640398139 -1.4984060824843348 2.1697283456513605 -1.4910824911374105 2.165888132543565 C -1.4873351326816147 2.162922308738978 -1.4908486987203824 2.157271212030238 -1.4944223828092424 2.1559419351448494 C -1.5105273404508157 2.146423243880128 -1.5293108912131992 2.14288963849133 -1.5472795084076558 2.1385744984513226 C -1.5934434910957167 2.128601581919233 -1.6403088510348636 2.1222624675260957 -1.6868869802902318 2.114527278414133 C -1.7840511088071678 2.0990902991069254 -1.8811484394906661 2.0805739396782887 -1.9747856424021475 2.0496933012805303 C -2.0382435841669544 2.0283981519809298 -2.100559282979995 2.0021198843069556 -2.156843137433708 1.9654879524503026 C -2.254916336095023 1.8965762033870164 -2.34077933563522 1.8117540085268975 -2.41088197777659 1.7145284922288493 Z" fill="#ffffff" transform="matrix(1,0,0,1,0,0)" fill-rule="nonzero"></path></g></g></g><defs><clipPath id="SvgjsClipPath1001"><path d=" M -2.6242876960399664 -0.05173981950276918 h 2.2242876960399665 v 2.223579639005538 h -2.2242876960399665 Z"></path></clipPath><clipPath id="SvgjsClipPath100054db7c92-a34f-4916-8708-a7055d512f1f"><path d=" M -2.6242876960399664 -0.05173981950276918 L -0.3999999999999999 -0.05173981950276918 L -0.3999999999999999 2.1718398195027686 L -2.6242876960399664 2.1718398195027686 Z"></path></clipPath></defs></svg>